<svg width="356" height="356" viewBox="0 0 356 356" fill="none" xmlns="http://www.w3.org/2000/svg">
  <path d="M335.015 335.015L20.4853 20.4853C12.9257 12.9257 18.2797 0 28.9706 0H119.529C122.712 0 125.764 1.26427 128.015 3.5147L351.985 227.485C354.236 229.736 355.5 232.788 355.5 235.971V326.529C355.5 337.22 342.574 342.574 335.015 335.015Z" fill="black"/>
  <path d="M0 154.471V343.5C0 350.127 5.37258 355.5 12 355.5H201.029C211.72 355.5 217.074 342.574 209.515 335.015L20.4853 145.985C12.9257 138.426 0 143.78 0 154.471Z" fill="black"/>
  <path d="M281.971 0H343.5C350.127 0 355.5 5.37258 355.5 12V73.5294C355.5 84.2203 342.574 89.5743 335.015 82.0147L273.485 20.4853C265.926 12.9257 271.28 0 281.971 0Z" fill="black"/>
</svg>
